<?xml version="1.0" encoding="UTF-8" standalone="no"?>
<!-- Created with Inkscape (http://www.inkscape.org/) -->

<svg
   width="221.90685mm"
   height="80mm"
   viewBox="0 0 221.90685 80"
   version="1.1"
   id="svg1"
   inkscape:version="1.3.2 (091e20e, 2023-11-25, custom)"
   sodipodi:docname="drawing-4-2.svg"
   xmlns:inkscape="http://www.inkscape.org/namespaces/inkscape"
   xmlns:sodipodi="http://sodipodi.sourceforge.net/DTD/sodipodi-0.dtd"
   xmlns="http://www.w3.org/2000/svg"
   xmlns:svg="http://www.w3.org/2000/svg">
  <sodipodi:namedview
     id="namedview1"
     pagecolor="#ffffff"
     bordercolor="#999999"
     borderopacity="1"
     inkscape:showpageshadow="2"
     inkscape:pageopacity="0"
     inkscape:pagecheckerboard="0"
     inkscape:deskcolor="#d1d1d1"
     inkscape:document-units="mm"
     showgrid="false"
     showguides="true"
     inkscape:zoom="2"
     inkscape:cx="379.5"
     inkscape:cy="146.5"
     inkscape:window-width="3840"
     inkscape:window-height="2036"
     inkscape:window-x="-12"
     inkscape:window-y="-12"
     inkscape:window-maximized="1"
     inkscape:current-layer="layer1">
    <inkscape:grid
       id="grid1"
       units="mm"
       originx="-19.999998"
       originy="-70"
       spacingx="1"
       spacingy="0.99999998"
       empcolor="#0099e5"
       empopacity="0.30196078"
       color="#0099e5"
       opacity="0.14901961"
       empspacing="10"
       dotted="false"
       gridanglex="30"
       gridanglez="30"
       visible="false" />
  </sodipodi:namedview>
  <defs
     id="defs1">
    <marker
       style="overflow:visible"
       id="ArrowTriangleStylized"
       refX="0"
       refY="0"
       orient="auto-start-reverse"
       inkscape:stockid="Stylized triangle arrow"
       markerWidth="1"
       markerHeight="1"
       viewBox="0 0 1 1"
       inkscape:isstock="true"
       inkscape:collect="always"
       preserveAspectRatio="xMidYMid">
      <path
         style="fill:context-stroke;fill-rule:evenodd;stroke:context-stroke;stroke-width:1pt"
         d="m 6,0 c -3,1 -7,3 -9,5 0,0 0,-4 2,-5 -2,-1 -2,-5 -2,-5 2,2 6,4 9,5 z"
         id="path22"
         transform="scale(0.5)" />
    </marker>
    <marker
       style="overflow:visible"
       id="ArrowTriangleStylized-55"
       refX="0"
       refY="0"
       orient="auto-start-reverse"
       inkscape:stockid="Stylized triangle arrow"
       markerWidth="1"
       markerHeight="1"
       viewBox="0 0 1 1"
       inkscape:isstock="true"
       inkscape:collect="always"
       preserveAspectRatio="xMidYMid">
      <path
         style="fill:context-stroke;fill-rule:evenodd;stroke:context-stroke;stroke-width:1pt"
         d="m 6,0 c -3,1 -7,3 -9,5 0,0 0,-4 2,-5 -2,-1 -2,-5 -2,-5 2,2 6,4 9,5 z"
         id="path22-9"
         transform="scale(0.5)" />
    </marker>
    <marker
       style="overflow:visible"
       id="ArrowTriangleStylized-3"
       refX="0"
       refY="0"
       orient="auto-start-reverse"
       inkscape:stockid="Stylized triangle arrow"
       markerWidth="1"
       markerHeight="1"
       viewBox="0 0 1 1"
       inkscape:isstock="true"
       inkscape:collect="always"
       preserveAspectRatio="xMidYMid">
      <path
         style="fill:context-stroke;fill-rule:evenodd;stroke:context-stroke;stroke-width:1pt"
         d="m 6,0 c -3,1 -7,3 -9,5 0,0 0,-4 2,-5 -2,-1 -2,-5 -2,-5 2,2 6,4 9,5 z"
         id="path22-4"
         transform="scale(0.5)" />
    </marker>
    <marker
       style="overflow:visible"
       id="ArrowTriangleStylized-34"
       refX="0"
       refY="0"
       orient="auto-start-reverse"
       inkscape:stockid="Stylized triangle arrow"
       markerWidth="1"
       markerHeight="1"
       viewBox="0 0 1 1"
       inkscape:isstock="true"
       inkscape:collect="always"
       preserveAspectRatio="xMidYMid">
      <path
         style="fill:context-stroke;fill-rule:evenodd;stroke:context-stroke;stroke-width:1pt"
         d="m 6,0 c -3,1 -7,3 -9,5 0,0 0,-4 2,-5 -2,-1 -2,-5 -2,-5 2,2 6,4 9,5 z"
         id="path22-1"
         transform="scale(0.5)" />
    </marker>
    <marker
       style="overflow:visible"
       id="ArrowTriangleStylized-2"
       refX="0"
       refY="0"
       orient="auto-start-reverse"
       inkscape:stockid="Stylized triangle arrow"
       markerWidth="1"
       markerHeight="1"
       viewBox="0 0 1 1"
       inkscape:isstock="true"
       inkscape:collect="always"
       preserveAspectRatio="xMidYMid">
      <path
         style="fill:context-stroke;fill-rule:evenodd;stroke:context-stroke;stroke-width:1pt"
         d="m 6,0 c -3,1 -7,3 -9,5 0,0 0,-4 2,-5 -2,-1 -2,-5 -2,-5 2,2 6,4 9,5 z"
         id="path22-6"
         transform="scale(0.5)" />
    </marker>
    <marker
       style="overflow:visible"
       id="marker24-9"
       refX="0"
       refY="0"
       orient="auto-start-reverse"
       inkscape:stockid="Stylized triangle arrow"
       markerWidth="1"
       markerHeight="1"
       viewBox="0 0 1 1"
       inkscape:isstock="true"
       inkscape:collect="always"
       preserveAspectRatio="xMidYMid">
      <path
         transform="scale(0.5)"
         style="fill:context-stroke;fill-rule:evenodd;stroke:context-stroke;stroke-width:1pt"
         d="m 6,0 c -3,1 -7,3 -9,5 0,0 0,-4 2,-5 -2,-1 -2,-5 -2,-5 2,2 6,4 9,5 z"
         id="path24-1-7" />
    </marker>
    <marker
       style="overflow:visible"
       id="ArrowTriangleStylized-1"
       refX="0"
       refY="0"
       orient="auto-start-reverse"
       inkscape:stockid="Stylized triangle arrow"
       markerWidth="1"
       markerHeight="1"
       viewBox="0 0 1 1"
       inkscape:isstock="true"
       inkscape:collect="always"
       preserveAspectRatio="xMidYMid">
      <path
         style="fill:context-stroke;fill-rule:evenodd;stroke:context-stroke;stroke-width:1pt"
         d="m 6,0 c -3,1 -7,3 -9,5 0,0 0,-4 2,-5 -2,-1 -2,-5 -2,-5 2,2 6,4 9,5 z"
         id="path22-13"
         transform="scale(0.5)" />
    </marker>
    <rect
       x="268.34644"
       y="234.3307"
       width="52.913383"
       height="37.795277"
       id="rect30" />
    <rect
       x="204.09448"
       y="532.91339"
       width="102.04724"
       height="49.133858"
       id="rect29" />
  </defs>
  <g
     inkscape:label="Layer 1"
     inkscape:groupmode="layer"
     id="layer1"
     transform="translate(-19.999998,-70.000002)">
    <path
       id="path21"
       style="fill:#c692dc;stroke:#000000;stroke-width:0.2"
       d="M 69.999938,80.000028 A 30.000002,30.000002 0 0 0 40.000215,110.00027 30.000002,30.000002 0 0 0 69.999938,139.99998 30.000002,30.000002 0 0 0 100.00018,110.00027 30.000002,30.000002 0 0 0 69.999938,80.000028 Z m 0.99994,3.026172 a 26.999998,26.999998 0 0 1 25.99996,26.97407 26.999998,26.999998 0 0 1 -25.99996,26.92135 z m -1.99988,0.05219 v 53.84323 A 26.999998,26.999998 0 0 1 43.000032,110.00027 26.999998,26.999998 0 0 1 68.999998,83.078393 Z" />
    <path
       style="fill:none;stroke:#000000;stroke-width:0.465;stroke-dasharray:none;marker-mid:url(#ArrowTriangleStylized)"
       d="m 20,95.000007 h 7.85045 16.149551"
       id="path11"
       sodipodi:nodetypes="ccc" />
    <path
       style="fill:none;stroke:#000000;stroke-width:0.465;stroke-dasharray:none;marker-mid:url(#ArrowTriangleStylized-55)"
       d="M 20,103.00001 H 26.869143 41"
       id="path11-1"
       sodipodi:nodetypes="ccc" />
    <path
       style="fill:none;stroke:#000000;stroke-width:0.465;stroke-dasharray:none;marker-mid:url(#ArrowTriangleStylized-3)"
       d="M 20.000001,110 H 26.542042 40"
       id="path11-4"
       sodipodi:nodetypes="ccc" />
    <path
       style="fill:none;stroke:#000000;stroke-width:0.465001;stroke-dasharray:none;marker-mid:url(#ArrowTriangleStylized-34)"
       d="m 19.999998,117 h 6.812985 14.015332"
       id="path11-5"
       sodipodi:nodetypes="ccc" />
    <path
       style="fill:none;stroke:#000000;stroke-width:0.465;stroke-dasharray:none;marker-mid:url(#ArrowTriangleStylized-2)"
       d="m 19.999999,125 h 7.856816 16.162649"
       id="path11-0"
       sodipodi:nodetypes="ccc" />
    <path
       style="fill:#c692dc;fill-opacity:1;stroke:#000000;stroke-width:0.465;stroke-dasharray:0.93, 0.465;stroke-dashoffset:0"
       d="M 69.999997,70.000002 V 150"
       id="path29" />
    <path
       style="fill:#c692dc;fill-opacity:1;stroke:#000000;stroke-width:0.465;stroke-dasharray:0.93, 0.465;stroke-dashoffset:0"
       d="M 204.99999,70.000002 V 150"
       id="path29-4" />
    <path
       style="fill:none;stroke:#000000;stroke-width:0.474;stroke-dasharray:none;stroke-dashoffset:0;marker-start:url(#marker24-9);marker-end:url(#ArrowTriangleStylized-1)"
       d="M 72.158459,144.99999 H 202.80433"
       id="path29-42" />
    <text
       xml:space="preserve"
       transform="matrix(0.26458333,0,0,0.26458333,129.60126,41.805951)"
       id="text30"
       style="font-size:16px;font-family:'Times New Roman';-inkscape-font-specification:'Times New Roman, ';white-space:pre;shape-inside:url(#rect30);display:inline;fill:#000000;stroke:#000000;stroke-width:0.623622;stroke-dasharray:none;stroke-dashoffset:0"><tspan
         x="268.3457"
         y="248.53201"
         id="tspan1">F</tspan></text>
    <text
       xml:space="preserve"
       transform="matrix(0.26458333,0,0,0.26458333,83.000192,-1.7577688)"
       id="text29"
       style="font-size:16px;font-family:'Times New Roman';-inkscape-font-specification:'Times New Roman, ';white-space:pre;shape-inside:url(#rect29);display:inline;fill:#000000;stroke:#000000;stroke-width:0.623622;stroke-dasharray:none;stroke-dashoffset:0"><tspan
         x="204.09375"
         y="547.116"
         id="tspan2">f</tspan></text>
    <path
       d="m 70.999875,83.0262 v 53.89541 A 26.999998,26.999998 0 0 0 96.999835,110.00026 26.999998,26.999998 0 0 0 70.999875,83.0262 Z"
       style="opacity:0.5;fill:#92cddc;fill-opacity:1;stroke:#000000;stroke-width:0.2"
       id="path31" />
    <path
       style="opacity:1;fill:#92cddc;fill-opacity:1;stroke:#000000;stroke-width:0.465;stroke-dasharray:none;stroke-dashoffset:0"
       d="m 44.000001,95.000005 25.999996,-3e-6"
       id="path33" />
    <path
       style="opacity:1;fill:#92cddc;fill-opacity:1;stroke:#000000;stroke-width:0.465;stroke-dasharray:none;stroke-dashoffset:0"
       d="M 40.790275,103 H 69.999997"
       id="path34" />
    <path
       style="opacity:1;fill:#92cddc;fill-opacity:1;stroke:#000000;stroke-width:0.465;stroke-dasharray:none;stroke-dashoffset:0"
       d="M 40.000213,110.00027 69.999997,110"
       id="path35" />
    <path
       style="opacity:1;fill:#92cddc;fill-opacity:1;stroke:#000000;stroke-width:0.465;stroke-dasharray:none;stroke-dashoffset:0"
       d="m 40.828317,117 h 29.17168"
       id="path36" />
    <path
       style="opacity:1;fill:#92cddc;fill-opacity:1;stroke:#000000;stroke-width:0.465;stroke-dasharray:none;stroke-dashoffset:0"
       d="M 43.999999,125 H 69.999997"
       id="path37" />
    <path
       style="opacity:1;fill:#92cddc;fill-opacity:1;stroke:#000000;stroke-width:0.465;stroke-dasharray:none;stroke-dashoffset:0;marker-end:url(#ArrowTriangleStylized-3)"
       d="M 69.999996,95.000002 239.99999,113.88889"
       id="path38" />
    <path
       style="fill:#92cddc;fill-opacity:1;stroke:#000000;stroke-width:0.465;stroke-dasharray:none;stroke-dashoffset:0;marker-end:url(#ArrowTriangleStylized-3)"
       d="M 69.999998,125 239.99999,106.11111"
       id="path38-3" />
    <path
       style="opacity:1;fill:#92cddc;fill-opacity:1;stroke:#000000;stroke-width:0.465;stroke-dasharray:none;stroke-dashoffset:0;marker-end:url(#ArrowTriangleStylized-3)"
       d="m 69.999997,103 169.999993,8.81482"
       id="path39" />
    <path
       style="fill:#92cddc;fill-opacity:1;stroke:#000000;stroke-width:0.465;stroke-dasharray:none;stroke-dashoffset:0;marker-end:url(#ArrowTriangleStylized-3)"
       d="M 69.989403,116.95284 240.02423,108.11155"
       id="path39-1" />
    <path
       style="opacity:1;fill:#92cddc;fill-opacity:1;stroke:#000000;stroke-width:0.465;stroke-dasharray:none;stroke-dashoffset:0;marker-end:url(#ArrowTriangleStylized-3)"
       d="M 69.999997,110 H 239.99999"
       id="path40" />
  </g>
</svg>
