<?xml version="1.0" encoding="UTF-8" standalone="no"?>
<!-- Created with Inkscape (http://www.inkscape.org/) -->

<svg
   width="146.64818mm"
   height="80mm"
   viewBox="0 0 146.64818 80"
   version="1.1"
   id="svg1"
   inkscape:version="1.3.2 (091e20e, 2023-11-25, custom)"
   sodipodi:docname="drawing-4-3.svg"
   xmlns:inkscape="http://www.inkscape.org/namespaces/inkscape"
   xmlns:sodipodi="http://sodipodi.sourceforge.net/DTD/sodipodi-0.dtd"
   xmlns="http://www.w3.org/2000/svg"
   xmlns:svg="http://www.w3.org/2000/svg">
  <sodipodi:namedview
     id="namedview1"
     pagecolor="#ffffff"
     bordercolor="#999999"
     borderopacity="1"
     inkscape:showpageshadow="2"
     inkscape:pageopacity="0"
     inkscape:pagecheckerboard="0"
     inkscape:deskcolor="#d1d1d1"
     inkscape:document-units="mm"
     showgrid="false"
     showguides="true"
     inkscape:zoom="2.8284271"
     inkscape:cx="447.59859"
     inkscape:cy="156.97771"
     inkscape:window-width="3840"
     inkscape:window-height="2036"
     inkscape:window-x="-12"
     inkscape:window-y="-12"
     inkscape:window-maximized="1"
     inkscape:current-layer="layer1">
    <inkscape:grid
       id="grid1"
       units="mm"
       originx="-5.9942671"
       originy="-70"
       spacingx="1"
       spacingy="0.99999998"
       empcolor="#0099e5"
       empopacity="0.30196078"
       color="#0099e5"
       opacity="0.14901961"
       empspacing="10"
       dotted="false"
       gridanglex="30"
       gridanglez="30"
       visible="false" />
  </sodipodi:namedview>
  <defs
     id="defs1">
    <marker
       style="overflow:visible"
       id="ArrowTriangleStylized"
       refX="0"
       refY="0"
       orient="auto-start-reverse"
       inkscape:stockid="Stylized triangle arrow"
       markerWidth="1"
       markerHeight="1"
       viewBox="0 0 1 1"
       inkscape:isstock="true"
       inkscape:collect="always"
       preserveAspectRatio="xMidYMid">
      <path
         style="fill:context-stroke;fill-rule:evenodd;stroke:context-stroke;stroke-width:1pt"
         d="m 6,0 c -3,1 -7,3 -9,5 0,0 0,-4 2,-5 -2,-1 -2,-5 -2,-5 2,2 6,4 9,5 z"
         id="path22"
         transform="scale(0.5)" />
    </marker>
    <marker
       style="overflow:visible"
       id="ArrowTriangleStylized-55"
       refX="0"
       refY="0"
       orient="auto-start-reverse"
       inkscape:stockid="Stylized triangle arrow"
       markerWidth="1"
       markerHeight="1"
       viewBox="0 0 1 1"
       inkscape:isstock="true"
       inkscape:collect="always"
       preserveAspectRatio="xMidYMid">
      <path
         style="fill:context-stroke;fill-rule:evenodd;stroke:context-stroke;stroke-width:1pt"
         d="m 6,0 c -3,1 -7,3 -9,5 0,0 0,-4 2,-5 -2,-1 -2,-5 -2,-5 2,2 6,4 9,5 z"
         id="path22-9"
         transform="scale(0.5)" />
    </marker>
    <marker
       style="overflow:visible"
       id="ArrowTriangleStylized-3"
       refX="0"
       refY="0"
       orient="auto-start-reverse"
       inkscape:stockid="Stylized triangle arrow"
       markerWidth="1"
       markerHeight="1"
       viewBox="0 0 1 1"
       inkscape:isstock="true"
       inkscape:collect="always"
       preserveAspectRatio="xMidYMid">
      <path
         style="fill:context-stroke;fill-rule:evenodd;stroke:context-stroke;stroke-width:1pt"
         d="m 6,0 c -3,1 -7,3 -9,5 0,0 0,-4 2,-5 -2,-1 -2,-5 -2,-5 2,2 6,4 9,5 z"
         id="path22-4"
         transform="scale(0.5)" />
    </marker>
    <marker
       style="overflow:visible"
       id="ArrowTriangleStylized-34"
       refX="0"
       refY="0"
       orient="auto-start-reverse"
       inkscape:stockid="Stylized triangle arrow"
       markerWidth="1"
       markerHeight="1"
       viewBox="0 0 1 1"
       inkscape:isstock="true"
       inkscape:collect="always"
       preserveAspectRatio="xMidYMid">
      <path
         style="fill:context-stroke;fill-rule:evenodd;stroke:context-stroke;stroke-width:1pt"
         d="m 6,0 c -3,1 -7,3 -9,5 0,0 0,-4 2,-5 -2,-1 -2,-5 -2,-5 2,2 6,4 9,5 z"
         id="path22-1"
         transform="scale(0.5)" />
    </marker>
    <marker
       style="overflow:visible"
       id="ArrowTriangleStylized-2"
       refX="0"
       refY="0"
       orient="auto-start-reverse"
       inkscape:stockid="Stylized triangle arrow"
       markerWidth="1"
       markerHeight="1"
       viewBox="0 0 1 1"
       inkscape:isstock="true"
       inkscape:collect="always"
       preserveAspectRatio="xMidYMid">
      <path
         style="fill:context-stroke;fill-rule:evenodd;stroke:context-stroke;stroke-width:1pt"
         d="m 6,0 c -3,1 -7,3 -9,5 0,0 0,-4 2,-5 -2,-1 -2,-5 -2,-5 2,2 6,4 9,5 z"
         id="path22-6"
         transform="scale(0.5)" />
    </marker>
    <marker
       style="overflow:visible"
       id="marker24-9"
       refX="0"
       refY="0"
       orient="auto-start-reverse"
       inkscape:stockid="Stylized triangle arrow"
       markerWidth="1"
       markerHeight="1"
       viewBox="0 0 1 1"
       inkscape:isstock="true"
       inkscape:collect="always"
       preserveAspectRatio="xMidYMid">
      <path
         transform="scale(0.5)"
         style="fill:context-stroke;fill-rule:evenodd;stroke:context-stroke;stroke-width:1pt"
         d="m 6,0 c -3,1 -7,3 -9,5 0,0 0,-4 2,-5 -2,-1 -2,-5 -2,-5 2,2 6,4 9,5 z"
         id="path24-1-7" />
    </marker>
    <marker
       style="overflow:visible"
       id="ArrowTriangleStylized-1"
       refX="0"
       refY="0"
       orient="auto-start-reverse"
       inkscape:stockid="Stylized triangle arrow"
       markerWidth="1"
       markerHeight="1"
       viewBox="0 0 1 1"
       inkscape:isstock="true"
       inkscape:collect="always"
       preserveAspectRatio="xMidYMid">
      <path
         style="fill:context-stroke;fill-rule:evenodd;stroke:context-stroke;stroke-width:1pt"
         d="m 6,0 c -3,1 -7,3 -9,5 0,0 0,-4 2,-5 -2,-1 -2,-5 -2,-5 2,2 6,4 9,5 z"
         id="path22-13"
         transform="scale(0.5)" />
    </marker>
    <rect
       x="268.34644"
       y="234.3307"
       width="52.913383"
       height="37.795277"
       id="rect30" />
    <rect
       x="204.09448"
       y="532.91339"
       width="102.04724"
       height="49.133858"
       id="rect29" />
  </defs>
  <g
     inkscape:label="Layer 1"
     inkscape:groupmode="layer"
     id="layer1"
     transform="translate(-5.9942667,-70.000002)">
    <path
       id="path21"
       style="fill:#c692dc;stroke:#000000;stroke-width:0.2"
       d="M 69.999938,80.000028 A 30.000002,30.000002 0 0 0 40.000215,110.00027 30.000002,30.000002 0 0 0 69.999938,139.99998 30.000002,30.000002 0 0 0 100.00018,110.00027 30.000002,30.000002 0 0 0 69.999938,80.000028 Z m 0.99994,3.026172 a 26.999998,26.999998 0 0 1 25.99996,26.97407 26.999998,26.999998 0 0 1 -25.99996,26.92135 z m -1.99988,0.05219 v 53.84323 A 26.999998,26.999998 0 0 1 43.000032,110.00027 26.999998,26.999998 0 0 1 68.999998,83.078393 Z" />
    <path
       style="fill:none;stroke:#000000;stroke-width:0.465001;stroke-dasharray:none"
       d="M 36.490389,125.00001 H 15.937395 6.0040055"
       id="path6"
       sodipodi:nodetypes="ccc" />
    <path
       style="fill:none;stroke:#000000;stroke-width:0.465001;stroke-dasharray:none"
       d="M 40.828316,117 H 16.739241 6.0040048"
       id="path7"
       sodipodi:nodetypes="ccc" />
    <path
       style="fill:none;stroke:#000000;stroke-width:0.465001;stroke-dasharray:none"
       d="M 39.999997,110 H 16.301694 6.0040045"
       id="path8"
       sodipodi:nodetypes="ccc" />
    <path
       style="fill:none;stroke:#000000;stroke-width:0.465;stroke-dasharray:none"
       d="m 40.830485,102.99098 -24.106569,0.006 -10.7295843,0.003"
       id="path9"
       sodipodi:nodetypes="ccc" />
    <path
       style="fill:none;stroke:#000000;stroke-width:0.465;stroke-dasharray:none;marker-mid:url(#ArrowTriangleStylized)"
       d="M 6.0040048,95.000007 H 18.432574 44.000001"
       id="path11"
       sodipodi:nodetypes="ccc" />
    <path
       style="fill:none;stroke:#000000;stroke-width:0.465;stroke-dasharray:none;marker-mid:url(#ArrowTriangleStylized-55)"
       d="M 6.0080095,103.00001 H 16.004005 36.567269"
       id="path11-1"
       sodipodi:nodetypes="ccc" />
    <path
       style="fill:none;stroke:#000000;stroke-width:0.465;stroke-dasharray:none;marker-mid:url(#ArrowTriangleStylized-3)"
       d="M 6.0040045,110 H 16 36.563259"
       id="path11-4"
       sodipodi:nodetypes="ccc" />
    <path
       style="fill:none;stroke:#000000;stroke-width:0.465;stroke-dasharray:none;marker-mid:url(#ArrowTriangleStylized-34)"
       d="M 6.0080095,117 H 16.004005 36.567269"
       id="path11-5"
       sodipodi:nodetypes="ccc" />
    <path
       style="fill:none;stroke:#000000;stroke-width:0.465;stroke-dasharray:none;marker-mid:url(#ArrowTriangleStylized-2)"
       d="M 6.0080094,125 H 18.441633 44.019464"
       id="path11-0"
       sodipodi:nodetypes="ccc" />
    <path
       style="fill:#c692dc;fill-opacity:1;stroke:#000000;stroke-width:0.465;stroke-dasharray:none"
       d="M 125,110 99.177056,103"
       id="path23" />
    <path
       style="fill:#c692dc;fill-opacity:1;stroke:#000000;stroke-width:0.465;stroke-dasharray:none;marker-start:url(#ArrowTriangleStylized-55)"
       d="M 150.82295,117 125,110"
       id="path23-81" />
    <path
       style="fill:#c692dc;fill-opacity:1;stroke:#000000;stroke-width:0.465;stroke-dasharray:none"
       d="m 125,110 -25.822941,7"
       id="path23-8" />
    <path
       style="fill:#c692dc;fill-opacity:1;stroke:#000000;stroke-width:0.465;stroke-dasharray:none;marker-start:url(#ArrowTriangleStylized-3)"
       d="M 150.82294,103 125,110"
       id="path23-8-2" />
    <path
       style="fill:#c692dc;fill-opacity:1;stroke:#000000;stroke-width:0.465;stroke-dasharray:none"
       d="M 125,110 99.851738,107"
       id="path24" />
    <path
       style="fill:#c692dc;fill-opacity:1;stroke:#000000;stroke-width:0.465;stroke-dasharray:none;marker-start:url(#ArrowTriangleStylized-55)"
       d="m 150.14826,113.00001 -25.14826,-3"
       id="path24-1" />
    <path
       style="fill:#c692dc;fill-opacity:1;stroke:#000000;stroke-width:0.465;stroke-dasharray:none"
       d="m 125,110 -25.14826,3"
       id="path24-4" />
    <path
       style="fill:#c692dc;fill-opacity:1;stroke:#000000;stroke-width:0.465;stroke-dasharray:none;marker-start:url(#ArrowTriangleStylized-55)"
       d="M 150.14826,107 125,110"
       id="path24-4-9" />
    <path
       style="fill:#c692dc;fill-opacity:1;stroke:#000000;stroke-width:0.465;stroke-dasharray:none"
       d="m 125,110 -24.99982,2.7e-4"
       id="path25" />
    <path
       style="fill:#c692dc;fill-opacity:1;stroke:#000000;stroke-width:0.465;stroke-dasharray:none;marker-start:url(#ArrowTriangleStylized-55)"
       d="M 149.99982,109.99973 125,110"
       id="path25-3" />
    <path
       style="fill:#c692dc;fill-opacity:1;stroke:#000000;stroke-width:0.465;stroke-dasharray:none"
       d="M 43.999999,95.000002 99.177056,103"
       id="path26" />
    <path
       style="fill:#c692dc;fill-opacity:1;stroke:#000000;stroke-width:0.465;stroke-dasharray:none"
       d="m 44.019464,125 55.177061,-8"
       id="path26-1" />
    <path
       style="fill:#c692dc;fill-opacity:1;stroke:#000000;stroke-width:0.465;stroke-dasharray:none"
       d="M 40.830484,102.99098 99.851738,107"
       id="path27" />
    <path
       style="fill:#c692dc;fill-opacity:1;stroke:#000000;stroke-width:0.465;stroke-dasharray:none"
       d="M 40.828316,117 99.84957,112.99098"
       id="path27-5" />
    <path
       style="fill:#c692dc;fill-opacity:1;stroke:#000000;stroke-width:0.465;stroke-dasharray:none"
       d="M 40.000213,110.00027 99.999997,110"
       id="path28" />
    <path
       style="fill:#c692dc;fill-opacity:1;stroke:#000000;stroke-width:0.465;stroke-dasharray:0.93, 0.465;stroke-dashoffset:0"
       d="M 69.999997,70.000002 V 150"
       id="path29" />
    <path
       style="fill:#c692dc;fill-opacity:1;stroke:#000000;stroke-width:0.465;stroke-dasharray:0.93, 0.465;stroke-dashoffset:0"
       d="M 125,70.000002 V 150"
       id="path29-4" />
    <path
       style="fill:none;stroke:#000000;stroke-width:0.474001;stroke-dasharray:none;stroke-dashoffset:0;marker-start:url(#marker24-9);marker-end:url(#ArrowTriangleStylized-1)"
       d="M 72.116949,145 H 122.91341"
       id="path29-42" />
    <text
       xml:space="preserve"
       transform="matrix(0.26458333,0,0,0.26458333,50.309412,41.242575)"
       id="text30"
       style="font-size:16px;font-family:'Times New Roman';-inkscape-font-specification:'Times New Roman, ';white-space:pre;shape-inside:url(#rect30);fill:#000000;stroke:#000000;stroke-width:0.623622;stroke-dasharray:none;stroke-dashoffset:0"><tspan
         x="268.3457"
         y="248.53201"
         id="tspan1">F</tspan></text>
    <text
       xml:space="preserve"
       transform="matrix(0.26458333,0,0,0.26458333,42.919396,-1.7400476)"
       id="text29"
       style="font-size:16px;font-family:'Times New Roman';-inkscape-font-specification:'Times New Roman, ';white-space:pre;shape-inside:url(#rect29);fill:#000000;stroke:#000000;stroke-width:0.623622;stroke-dasharray:none;stroke-dashoffset:0"><tspan
         x="204.09375"
         y="547.116"
         id="tspan2">f</tspan></text>
    <path
       d="m 70.999875,83.0262 v 53.89541 A 26.999998,26.999998 0 0 0 96.999835,110.00026 26.999998,26.999998 0 0 0 70.999875,83.0262 Z"
       style="opacity:0.5;fill:#92cddc;fill-opacity:1;stroke:#000000;stroke-width:0.2"
       id="path31" />
    <path
       d="M 68.999998,83.078393 A 26.999998,26.999998 0 0 0 43.000034,110.00026 26.999998,26.999998 0 0 0 68.999998,136.92161 Z"
       style="opacity:0.5;fill:#92cddc;fill-opacity:1;stroke:#000000;stroke-width:0.2"
       id="path30" />
  </g>
</svg>
