<?xml version="1.0" encoding="UTF-8" standalone="no"?>
<!-- Created with Inkscape (http://www.inkscape.org/) -->

<svg
   width="151.08406mm"
   height="80mm"
   viewBox="0 0 151.08406 80"
   version="1.1"
   id="svg1"
   inkscape:version="1.3.2 (091e20e, 2023-11-25, custom)"
   sodipodi:docname="drawing-1-1.svg"
   xmlns:inkscape="http://www.inkscape.org/namespaces/inkscape"
   xmlns:sodipodi="http://sodipodi.sourceforge.net/DTD/sodipodi-0.dtd"
   xmlns="http://www.w3.org/2000/svg"
   xmlns:svg="http://www.w3.org/2000/svg">
  <sodipodi:namedview
     id="namedview1"
     pagecolor="#ffffff"
     bordercolor="#999999"
     borderopacity="1"
     inkscape:showpageshadow="2"
     inkscape:pageopacity="0"
     inkscape:pagecheckerboard="0"
     inkscape:deskcolor="#d1d1d1"
     inkscape:document-units="mm"
     showgrid="false"
     inkscape:zoom="1.5848274"
     inkscape:cx="174.15146"
     inkscape:cy="237.24981"
     inkscape:window-width="3840"
     inkscape:window-height="2036"
     inkscape:window-x="-12"
     inkscape:window-y="-12"
     inkscape:window-maximized="1"
     inkscape:current-layer="layer1"
     showguides="true">
    <inkscape:grid
       id="grid1"
       units="mm"
       originx="-70.092738"
       originy="-60.000001"
       spacingx="1"
       spacingy="0.99999998"
       empcolor="#0099e5"
       empopacity="0.30196078"
       color="#0099e5"
       opacity="0.14901961"
       empspacing="10"
       dotted="false"
       gridanglex="30"
       gridanglez="30"
       visible="false" />
  </sodipodi:namedview>
  <defs
     id="defs1">
    <rect
       x="268.34644"
       y="234.3307"
       width="52.913383"
       height="37.795277"
       id="rect30" />
    <rect
       x="204.09448"
       y="532.91339"
       width="102.04724"
       height="49.133858"
       id="rect29" />
    <marker
       style="overflow:visible"
       id="marker26"
       refX="0"
       refY="0"
       orient="auto-start-reverse"
       inkscape:stockid="Stylized triangle arrow"
       markerWidth="1"
       markerHeight="1"
       viewBox="0 0 1 1"
       inkscape:isstock="true"
       inkscape:collect="always"
       preserveAspectRatio="xMidYMid">
      <path
         transform="scale(0.5)"
         style="fill:context-stroke;fill-rule:evenodd;stroke:context-stroke;stroke-width:1pt"
         d="m 6,0 c -3,1 -7,3 -9,5 0,0 0,-4 2,-5 -2,-1 -2,-5 -2,-5 2,2 6,4 9,5 z"
         id="path26" />
    </marker>
    <marker
       style="overflow:visible"
       id="marker24"
       refX="0"
       refY="0"
       orient="auto-start-reverse"
       inkscape:stockid="Stylized triangle arrow"
       markerWidth="1"
       markerHeight="1"
       viewBox="0 0 1 1"
       inkscape:isstock="true"
       inkscape:collect="always"
       preserveAspectRatio="xMidYMid">
      <path
         transform="scale(0.5)"
         style="fill:context-stroke;fill-rule:evenodd;stroke:context-stroke;stroke-width:1pt"
         d="m 6,0 c -3,1 -7,3 -9,5 0,0 0,-4 2,-5 -2,-1 -2,-5 -2,-5 2,2 6,4 9,5 z"
         id="path24" />
    </marker>
    <marker
       style="overflow:visible"
       id="ArrowTriangleStylized"
       refX="0"
       refY="0"
       orient="auto-start-reverse"
       inkscape:stockid="Stylized triangle arrow"
       markerWidth="1"
       markerHeight="1"
       viewBox="0 0 1 1"
       inkscape:isstock="true"
       inkscape:collect="always"
       preserveAspectRatio="xMidYMid">
      <path
         style="fill:context-stroke;fill-rule:evenodd;stroke:context-stroke;stroke-width:1pt"
         d="m 6,0 c -3,1 -7,3 -9,5 0,0 0,-4 2,-5 -2,-1 -2,-5 -2,-5 2,2 6,4 9,5 z"
         id="path22"
         transform="scale(0.5)" />
    </marker>
    <marker
       style="overflow:visible"
       id="Triangle"
       refX="0"
       refY="0"
       orient="auto-start-reverse"
       inkscape:stockid="Triangle arrow"
       markerWidth="1"
       markerHeight="1"
       viewBox="0 0 1 1"
       inkscape:isstock="true"
       inkscape:collect="always"
       preserveAspectRatio="xMidYMid">
      <path
         transform="scale(0.5)"
         style="fill:context-stroke;fill-rule:evenodd;stroke:context-stroke;stroke-width:1pt"
         d="M 5.77,0 -2.88,5 V -5 Z"
         id="path135" />
    </marker>
    <rect
       x="138.89445"
       y="215.28641"
       width="201.26305"
       height="124.87107"
       id="rect14" />
    <rect
       x="151.18111"
       y="207.87401"
       width="256.66351"
       height="132.28346"
       id="rect15" />
    <rect
       x="120.94488"
       y="532.91339"
       width="83.149605"
       height="64.251968"
       id="rect18" />
    <rect
       x="151.18111"
       y="207.87401"
       width="256.66351"
       height="132.28346"
       id="rect15-4" />
    <rect
       x="434.64569"
       y="823.93695"
       width="68.031502"
       height="49.133858"
       id="rect23" />
    <rect
       x="408.189"
       y="831.49603"
       width="60.472443"
       height="52.913383"
       id="rect24" />
    <rect
       x="151.18111"
       y="207.87401"
       width="256.66351"
       height="132.28346"
       id="rect15-4-4" />
    <rect
       x="551.81104"
       y="797.48029"
       width="75.590553"
       height="22.677164"
       id="rect26" />
    <clipPath
       clipPathUnits="userSpaceOnUse"
       id="clipPath12">
      <circle
         style="fill:none;stroke:#000000;stroke-width:0.465;stroke-dasharray:none"
         id="circle12"
         cx="122"
         cy="100"
         r="28.000002" />
    </clipPath>
    <clipPath
       clipPathUnits="userSpaceOnUse"
       id="clipPath13">
      <circle
         style="fill:none;stroke:#000000;stroke-width:0.465;stroke-dasharray:none"
         id="circle13"
         cx="122"
         cy="100"
         r="28.000002" />
    </clipPath>
    <clipPath
       clipPathUnits="userSpaceOnUse"
       id="clipPath14">
      <circle
         style="fill:none;stroke:#000000;stroke-width:0.465;stroke-dasharray:none"
         id="circle14"
         cx="122"
         cy="100"
         r="28.000002" />
    </clipPath>
    <clipPath
       clipPathUnits="userSpaceOnUse"
       id="clipPath15">
      <circle
         style="fill:none;stroke:#000000;stroke-width:0.465;stroke-dasharray:none"
         id="circle15"
         cx="122"
         cy="100"
         r="28.000002" />
    </clipPath>
    <clipPath
       clipPathUnits="userSpaceOnUse"
       id="clipPath16">
      <circle
         style="fill:none;stroke:#000000;stroke-width:0.465;stroke-dasharray:none"
         id="circle16"
         cx="122"
         cy="100"
         r="28.000002" />
    </clipPath>
    <marker
       style="overflow:visible"
       id="marker24-9"
       refX="0"
       refY="0"
       orient="auto-start-reverse"
       inkscape:stockid="Stylized triangle arrow"
       markerWidth="1"
       markerHeight="1"
       viewBox="0 0 1 1"
       inkscape:isstock="true"
       inkscape:collect="always"
       preserveAspectRatio="xMidYMid">
      <path
         transform="scale(0.5)"
         style="fill:context-stroke;fill-rule:evenodd;stroke:context-stroke;stroke-width:1pt"
         d="m 6,0 c -3,1 -7,3 -9,5 0,0 0,-4 2,-5 -2,-1 -2,-5 -2,-5 2,2 6,4 9,5 z"
         id="path24-1" />
    </marker>
    <marker
       style="overflow:visible"
       id="ArrowTriangleStylized-5"
       refX="0"
       refY="0"
       orient="auto-start-reverse"
       inkscape:stockid="Stylized triangle arrow"
       markerWidth="1"
       markerHeight="1"
       viewBox="0 0 1 1"
       inkscape:isstock="true"
       inkscape:collect="always"
       preserveAspectRatio="xMidYMid">
      <path
         transform="scale(0.5)"
         style="fill:context-stroke;fill-rule:evenodd;stroke:context-stroke;stroke-width:1pt"
         d="m 6,0 c -3,1 -7,3 -9,5 0,0 0,-4 2,-5 -2,-1 -2,-5 -2,-5 2,2 6,4 9,5 z"
         id="path22-2" />
    </marker>
    <marker
       style="overflow:visible"
       id="ArrowTriangleStylized-55"
       refX="0"
       refY="0"
       orient="auto-start-reverse"
       inkscape:stockid="Stylized triangle arrow"
       markerWidth="1"
       markerHeight="1"
       viewBox="0 0 1 1"
       inkscape:isstock="true"
       inkscape:collect="always"
       preserveAspectRatio="xMidYMid">
      <path
         style="fill:context-stroke;fill-rule:evenodd;stroke:context-stroke;stroke-width:1pt"
         d="m 6,0 c -3,1 -7,3 -9,5 0,0 0,-4 2,-5 -2,-1 -2,-5 -2,-5 2,2 6,4 9,5 z"
         id="path22-9"
         transform="scale(0.5)" />
    </marker>
    <marker
       style="overflow:visible"
       id="ArrowTriangleStylized-3"
       refX="0"
       refY="0"
       orient="auto-start-reverse"
       inkscape:stockid="Stylized triangle arrow"
       markerWidth="1"
       markerHeight="1"
       viewBox="0 0 1 1"
       inkscape:isstock="true"
       inkscape:collect="always"
       preserveAspectRatio="xMidYMid">
      <path
         style="fill:context-stroke;fill-rule:evenodd;stroke:context-stroke;stroke-width:1pt"
         d="m 6,0 c -3,1 -7,3 -9,5 0,0 0,-4 2,-5 -2,-1 -2,-5 -2,-5 2,2 6,4 9,5 z"
         id="path22-4"
         transform="scale(0.5)" />
    </marker>
    <marker
       style="overflow:visible"
       id="ArrowTriangleStylized-34"
       refX="0"
       refY="0"
       orient="auto-start-reverse"
       inkscape:stockid="Stylized triangle arrow"
       markerWidth="1"
       markerHeight="1"
       viewBox="0 0 1 1"
       inkscape:isstock="true"
       inkscape:collect="always"
       preserveAspectRatio="xMidYMid">
      <path
         style="fill:context-stroke;fill-rule:evenodd;stroke:context-stroke;stroke-width:1pt"
         d="m 6,0 c -3,1 -7,3 -9,5 0,0 0,-4 2,-5 -2,-1 -2,-5 -2,-5 2,2 6,4 9,5 z"
         id="path22-1"
         transform="scale(0.5)" />
    </marker>
    <marker
       style="overflow:visible"
       id="ArrowTriangleStylized-2"
       refX="0"
       refY="0"
       orient="auto-start-reverse"
       inkscape:stockid="Stylized triangle arrow"
       markerWidth="1"
       markerHeight="1"
       viewBox="0 0 1 1"
       inkscape:isstock="true"
       inkscape:collect="always"
       preserveAspectRatio="xMidYMid">
      <path
         style="fill:context-stroke;fill-rule:evenodd;stroke:context-stroke;stroke-width:1pt"
         d="m 6,0 c -3,1 -7,3 -9,5 0,0 0,-4 2,-5 -2,-1 -2,-5 -2,-5 2,2 6,4 9,5 z"
         id="path22-6"
         transform="scale(0.5)" />
    </marker>
  </defs>
  <g
     inkscape:label="Layer 1"
     inkscape:groupmode="layer"
     id="layer1"
     transform="translate(-70.092738,-60.000003)">
    <path
       d="M 93.071412,70.236777 H 90.102475 V 100 129.76324 H 92.92068 A 49.604987,49.604987 0 0 0 103.00001,100 49.604987,49.604987 0 0 0 93.071412,70.236777 Z"
       style="fill:#92cddc;fill-opacity:1;stroke:#000000;stroke-width:0.473542;stroke-dasharray:none"
       id="path17" />
    <path
       style="fill:#a8dc92;stroke:#000000;stroke-width:0.465;stroke-dasharray:none"
       d="m 103.00001,100 h 89.10247"
       id="path1" />
    <path
       style="fill:#a8dc92;stroke:#000000;stroke-width:0.465;stroke-dasharray:none"
       d="M 102.50092,92.99098 192.10248,100"
       id="path2" />
    <path
       style="fill:#a8dc92;stroke:#000000;stroke-width:0.465;stroke-dasharray:none"
       d="m 102.46105,107 89.64143,-7"
       id="path3" />
    <path
       style="fill:#a8dc92;stroke:#000000;stroke-width:0.465;stroke-dasharray:none"
       d="m 100.58886,115 91.51362,-15"
       id="path4" />
    <path
       style="fill:none;stroke:#000000;stroke-width:0.465001;stroke-dasharray:none"
       d="M 100.58886,115.00001 H 80.035866 70.102477"
       id="path6"
       sodipodi:nodetypes="ccc" />
    <path
       style="fill:none;stroke:#000000;stroke-width:0.465001;stroke-dasharray:none"
       d="M 102.46105,107 H 80.077603 70.102476"
       id="path7"
       sodipodi:nodetypes="ccc" />
    <path
       style="fill:none;stroke:#000000;stroke-width:0.465;stroke-dasharray:none"
       d="M 103.10248,100 H 80.098471 70.102476"
       id="path8"
       sodipodi:nodetypes="ccc" />
    <path
       style="fill:none;stroke:#000000;stroke-width:0.465;stroke-dasharray:none"
       d="m 102.51077,92.990978 -22.433188,0.0062 -9.984779,0.0028"
       id="path9"
       sodipodi:nodetypes="ccc" />
    <path
       style="fill:none;stroke:#000000;stroke-width:0.465;stroke-dasharray:none"
       d="M 100.66173,85.000003 192.10248,100"
       id="path10" />
    <path
       style="fill:#a8dc92;stroke:#000000;stroke-width:0.465;stroke-dasharray:none"
       d="M 211.10248,100 H 122"
       id="path1-1"
       clip-path="url(#clipPath16)"
       transform="matrix(-1,0,0,1,342.10248,2.3009285e-6)" />
    <path
       style="fill:#a8dc92;stroke:#000000;stroke-width:0.465;stroke-dasharray:none;marker-mid:url(#Triangle)"
       d="M 211.60156,92.99098 122,100"
       id="path2-7"
       clip-path="url(#clipPath15)"
       transform="translate(70.102476)" />
    <path
       style="fill:#a8dc92;stroke:#000000;stroke-width:0.465;stroke-dasharray:none"
       d="M 211.64143,107 122,100"
       id="path3-1"
       clip-path="url(#clipPath14)"
       transform="translate(70.102476)" />
    <path
       style="fill:#a8dc92;stroke:#000000;stroke-width:0.465;stroke-dasharray:none"
       d="M 213.51363,115 122,100"
       id="path4-0"
       clip-path="url(#clipPath13)"
       transform="translate(70.102476)" />
    <path
       style="fill:none;stroke:#000000;stroke-width:0.465;stroke-dasharray:none"
       d="M 213.44075,85.000003 136.62568,97.600795 122,100"
       id="path10-2"
       clip-path="url(#clipPath12)"
       sodipodi:nodetypes="ccc"
       transform="translate(70.102476)" />
    <path
       style="fill:none;stroke:#000000;stroke-width:0.465;stroke-dasharray:none;marker-mid:url(#ArrowTriangleStylized)"
       d="m 70.102476,85.000003 h 9.995995 20.563259"
       id="path11"
       sodipodi:nodetypes="ccc" />
    <path
       style="fill:none;stroke:#000000;stroke-width:0.265;stroke-dasharray:none;marker-end:url(#ArrowTriangleStylized)"
       d="m 192.10248,100 27.62937,4.54073"
       id="path19" />
    <path
       style="fill:none;stroke:#000000;stroke-width:0.265;stroke-dasharray:none;marker-end:url(#marker24)"
       d="m 192.10248,100 27.91397,2.1933"
       id="path23" />
    <path
       style="fill:none;stroke:#000000;stroke-width:0.265;stroke-dasharray:none;marker-end:url(#ArrowTriangleStylized-5)"
       d="m 192.11286,99.867911 27.62937,-4.540728"
       id="path19-5" />
    <path
       style="fill:none;stroke:#000000;stroke-width:0.265;stroke-dasharray:none;marker-end:url(#marker24-9)"
       d="m 192.11286,99.867911 27.91397,-2.1933"
       id="path23-6" />
    <path
       style="fill:none;stroke:#000000;stroke-width:0.264999;stroke-dasharray:none;marker-end:url(#marker26)"
       d="m 192.10248,100 h 27.99999"
       id="path25" />
    <path
       style="fill:none;stroke:#000000;stroke-width:0.465;stroke-dasharray:none;marker-mid:url(#ArrowTriangleStylized-55)"
       d="m 70.106481,93.000004 h 9.995995 20.563264"
       id="path11-1"
       sodipodi:nodetypes="ccc" />
    <path
       style="fill:none;stroke:#000000;stroke-width:0.465;stroke-dasharray:none;marker-mid:url(#ArrowTriangleStylized-3)"
       d="m 70.102476,100 h 9.995995 20.563259"
       id="path11-4"
       sodipodi:nodetypes="ccc" />
    <path
       style="fill:none;stroke:#000000;stroke-width:0.465;stroke-dasharray:none;marker-mid:url(#ArrowTriangleStylized-34)"
       d="m 70.106481,107 h 9.995995 20.563264"
       id="path11-5"
       sodipodi:nodetypes="ccc" />
    <path
       style="fill:none;stroke:#000000;stroke-width:0.465;stroke-dasharray:none;marker-mid:url(#ArrowTriangleStylized-2)"
       d="m 70.106481,115 h 9.995995 20.563264"
       id="path11-0"
       sodipodi:nodetypes="ccc" />
    <path
       style="fill:none;stroke:#000000;stroke-width:0.474;stroke-dasharray:1.422, 0.474;stroke-dashoffset:0"
       d="M 90.102475,60.000003 V 140"
       id="path27" />
    <path
       style="fill:none;stroke:#000000;stroke-width:0.474001;stroke-dasharray:1.422, 0.474001;stroke-dashoffset:0"
       d="M 192.10248,60.000003 V 140"
       id="path28" />
    <path
       style="fill:none;stroke:#000000;stroke-width:0.474001;stroke-dasharray:none;stroke-dashoffset:0;marker-start:url(#marker24-9);marker-end:url(#ArrowTriangleStylized)"
       d="M 91.994813,135 H 190.25873"
       id="path29" />
    <text
       xml:space="preserve"
       transform="matrix(0.26458333,0,0,0.26458333,86.180489,-11.740046)"
       id="text29"
       style="font-size:16px;font-family:'Times New Roman';-inkscape-font-specification:'Times New Roman, ';white-space:pre;shape-inside:url(#rect29);fill:#000000;stroke:#000000;stroke-width:0.623622;stroke-dasharray:none;stroke-dashoffset:0"><tspan
         x="204.09375"
         y="547.116"
         id="tspan3">f</tspan></text>
    <text
       xml:space="preserve"
       transform="matrix(0.26458333,0,0,0.26458333,116.47111,30.600206)"
       id="text30"
       style="font-size:16px;font-family:'Times New Roman';-inkscape-font-specification:'Times New Roman, ';white-space:pre;shape-inside:url(#rect30);fill:#000000;stroke:#000000;stroke-width:0.623622;stroke-dasharray:none;stroke-dashoffset:0"><tspan
         x="268.3457"
         y="248.53201"
         id="tspan4">F</tspan></text>
  </g>
</svg>
