<?xml version="1.0" encoding="UTF-8" standalone="no"?>
<!-- Created with Inkscape (http://www.inkscape.org/) -->

<svg
   width="298.04691mm"
   height="110.50274mm"
   viewBox="0 0 298.04691 110.50274"
   version="1.1"
   id="svg1"
   sodipodi:docname="lenses.svg"
   inkscape:version="1.3.2 (091e20e, 2023-11-25, custom)"
   xmlns:inkscape="http://www.inkscape.org/namespaces/inkscape"
   xmlns:sodipodi="http://sodipodi.sourceforge.net/DTD/sodipodi-0.dtd"
   xmlns="http://www.w3.org/2000/svg"
   xmlns:svg="http://www.w3.org/2000/svg">
  <sodipodi:namedview
     id="namedview1"
     pagecolor="#ffffff"
     bordercolor="#999999"
     borderopacity="1"
     inkscape:showpageshadow="2"
     inkscape:pageopacity="0"
     inkscape:pagecheckerboard="0"
     inkscape:deskcolor="#d1d1d1"
     inkscape:document-units="mm"
     showgrid="true"
     inkscape:zoom="1.1200123"
     inkscape:cx="371.42449"
     inkscape:cy="298.21101"
     inkscape:window-width="3840"
     inkscape:window-height="2036"
     inkscape:window-x="-12"
     inkscape:window-y="-12"
     inkscape:window-maximized="1"
     inkscape:current-layer="layer1">
    <inkscape:grid
       id="grid1"
       units="mm"
       originx="-1.15548"
       originy="-59.882254"
       spacingx="0.99999998"
       spacingy="1"
       empcolor="#0099e5"
       empopacity="0.30196078"
       color="#0099e5"
       opacity="0.14901961"
       empspacing="10"
       dotted="false"
       gridanglex="30"
       gridanglez="30"
       visible="true" />
  </sodipodi:namedview>
  <defs
     id="defs1">
    <rect
       x="551.81104"
       y="797.48029"
       width="75.590553"
       height="22.677164"
       id="rect26" />
    <rect
       x="408.189"
       y="831.49603"
       width="60.472443"
       height="52.913383"
       id="rect24" />
    <rect
       x="434.64569"
       y="823.93695"
       width="68.031502"
       height="49.133858"
       id="rect23" />
    <rect
       x="120.94488"
       y="532.91339"
       width="83.149605"
       height="64.251968"
       id="rect18" />
    <rect
       x="79.370079"
       y="514.01575"
       width="98.267715"
       height="64.251968"
       id="rect17" />
    <rect
       x="151.18111"
       y="207.87401"
       width="256.66351"
       height="132.28346"
       id="rect15" />
    <rect
       x="138.89445"
       y="215.28641"
       width="201.26305"
       height="124.87107"
       id="rect14" />
    <rect
       x="197.60892"
       y="461.10236"
       width="42.615341"
       height="47.36182"
       id="rect13" />
    <marker
       style="overflow:visible"
       id="marker12"
       refX="0"
       refY="0"
       orient="auto-start-reverse"
       inkscape:stockid="Stylized triangle arrow"
       markerWidth="1"
       markerHeight="1"
       viewBox="0 0 1 1"
       inkscape:isstock="true"
       inkscape:collect="always"
       preserveAspectRatio="xMidYMid">
      <path
         transform="scale(0.5)"
         style="fill:context-stroke;fill-rule:evenodd;stroke:context-stroke;stroke-width:1pt"
         d="m 6,0 c -3,1 -7,3 -9,5 0,0 0,-4 2,-5 -2,-1 -2,-5 -2,-5 2,2 6,4 9,5 z"
         id="path12" />
    </marker>
    <marker
       style="overflow:visible"
       id="marker11"
       refX="0"
       refY="0"
       orient="auto-start-reverse"
       inkscape:stockid="Stylized triangle arrow"
       markerWidth="1"
       markerHeight="1"
       viewBox="0 0 1 1"
       inkscape:isstock="true"
       inkscape:collect="always"
       preserveAspectRatio="xMidYMid">
      <path
         transform="scale(0.5)"
         style="fill:context-stroke;fill-rule:evenodd;stroke:context-stroke;stroke-width:1pt"
         d="m 6,0 c -3,1 -7,3 -9,5 0,0 0,-4 2,-5 -2,-1 -2,-5 -2,-5 2,2 6,4 9,5 z"
         id="path11" />
    </marker>
    <marker
       style="overflow:visible"
       id="marker10"
       refX="0"
       refY="0"
       orient="auto-start-reverse"
       inkscape:stockid="Stylized triangle arrow"
       markerWidth="1"
       markerHeight="1"
       viewBox="0 0 1 1"
       inkscape:isstock="true"
       inkscape:collect="always"
       preserveAspectRatio="xMidYMid">
      <path
         transform="scale(0.5)"
         style="fill:context-stroke;fill-rule:evenodd;stroke:context-stroke;stroke-width:1pt"
         d="m 6,0 c -3,1 -7,3 -9,5 0,0 0,-4 2,-5 -2,-1 -2,-5 -2,-5 2,2 6,4 9,5 z"
         id="path10" />
    </marker>
    <marker
       style="overflow:visible"
       id="marker9"
       refX="0"
       refY="0"
       orient="auto-start-reverse"
       inkscape:stockid="Stylized triangle arrow"
       markerWidth="1"
       markerHeight="1"
       viewBox="0 0 1 1"
       inkscape:isstock="true"
       inkscape:collect="always"
       preserveAspectRatio="xMidYMid">
      <path
         transform="scale(0.5)"
         style="fill:context-stroke;fill-rule:evenodd;stroke:context-stroke;stroke-width:1pt"
         d="m 6,0 c -3,1 -7,3 -9,5 0,0 0,-4 2,-5 -2,-1 -2,-5 -2,-5 2,2 6,4 9,5 z"
         id="path9" />
    </marker>
    <marker
       style="overflow:visible"
       id="marker8"
       refX="0"
       refY="0"
       orient="auto-start-reverse"
       inkscape:stockid="Stylized triangle arrow"
       markerWidth="1"
       markerHeight="1"
       viewBox="0 0 1 1"
       inkscape:isstock="true"
       inkscape:collect="always"
       preserveAspectRatio="xMidYMid">
      <path
         transform="scale(0.5)"
         style="fill:context-stroke;fill-rule:evenodd;stroke:context-stroke;stroke-width:1pt"
         d="m 6,0 c -3,1 -7,3 -9,5 0,0 0,-4 2,-5 -2,-1 -2,-5 -2,-5 2,2 6,4 9,5 z"
         id="path8" />
    </marker>
    <marker
       style="overflow:visible"
       id="ArrowTriangleStylized"
       refX="0"
       refY="0"
       orient="auto-start-reverse"
       inkscape:stockid="Stylized triangle arrow"
       markerWidth="1"
       markerHeight="1"
       viewBox="0 0 1 1"
       inkscape:isstock="true"
       inkscape:collect="always"
       preserveAspectRatio="xMidYMid">
      <path
         transform="scale(0.5)"
         style="fill:context-stroke;fill-rule:evenodd;stroke:context-stroke;stroke-width:1pt"
         d="m 6,0 c -3,1 -7,3 -9,5 0,0 0,-4 2,-5 -2,-1 -2,-5 -2,-5 2,2 6,4 9,5 z"
         id="path7" />
    </marker>
    <marker
       style="overflow:visible"
       id="marker11-6"
       refX="0"
       refY="0"
       orient="auto-start-reverse"
       inkscape:stockid="Stylized triangle arrow"
       markerWidth="1"
       markerHeight="1"
       viewBox="0 0 1 1"
       inkscape:isstock="true"
       inkscape:collect="always"
       preserveAspectRatio="xMidYMid">
      <path
         transform="scale(0.5)"
         style="fill:context-stroke;fill-rule:evenodd;stroke:context-stroke;stroke-width:1pt"
         d="m 6,0 c -3,1 -7,3 -9,5 0,0 0,-4 2,-5 -2,-1 -2,-5 -2,-5 2,2 6,4 9,5 z"
         id="path11-7" />
    </marker>
    <marker
       style="overflow:visible"
       id="marker12-4"
       refX="0"
       refY="0"
       orient="auto-start-reverse"
       inkscape:stockid="Stylized triangle arrow"
       markerWidth="1"
       markerHeight="1"
       viewBox="0 0 1 1"
       inkscape:isstock="true"
       inkscape:collect="always"
       preserveAspectRatio="xMidYMid">
      <path
         transform="scale(0.5)"
         style="fill:context-stroke;fill-rule:evenodd;stroke:context-stroke;stroke-width:1pt"
         d="m 6,0 c -3,1 -7,3 -9,5 0,0 0,-4 2,-5 -2,-1 -2,-5 -2,-5 2,2 6,4 9,5 z"
         id="path12-6" />
    </marker>
    <rect
       x="151.18111"
       y="207.87401"
       width="256.66351"
       height="132.28346"
       id="rect15-4" />
    <marker
       style="overflow:visible"
       id="ArrowTriangleStylized-3"
       refX="0"
       refY="0"
       orient="auto-start-reverse"
       inkscape:stockid="Stylized triangle arrow"
       markerWidth="1"
       markerHeight="1"
       viewBox="0 0 1 1"
       inkscape:isstock="true"
       inkscape:collect="always"
       preserveAspectRatio="xMidYMid">
      <path
         transform="scale(0.5)"
         style="fill:context-stroke;fill-rule:evenodd;stroke:context-stroke;stroke-width:1pt"
         d="m 6,0 c -3,1 -7,3 -9,5 0,0 0,-4 2,-5 -2,-1 -2,-5 -2,-5 2,2 6,4 9,5 z"
         id="path7-6" />
    </marker>
    <marker
       style="overflow:visible"
       id="marker8-1"
       refX="0"
       refY="0"
       orient="auto-start-reverse"
       inkscape:stockid="Stylized triangle arrow"
       markerWidth="1"
       markerHeight="1"
       viewBox="0 0 1 1"
       inkscape:isstock="true"
       inkscape:collect="always"
       preserveAspectRatio="xMidYMid">
      <path
         transform="scale(0.5)"
         style="fill:context-stroke;fill-rule:evenodd;stroke:context-stroke;stroke-width:1pt"
         d="m 6,0 c -3,1 -7,3 -9,5 0,0 0,-4 2,-5 -2,-1 -2,-5 -2,-5 2,2 6,4 9,5 z"
         id="path8-2" />
    </marker>
    <marker
       style="overflow:visible"
       id="marker9-8"
       refX="0"
       refY="0"
       orient="auto-start-reverse"
       inkscape:stockid="Stylized triangle arrow"
       markerWidth="1"
       markerHeight="1"
       viewBox="0 0 1 1"
       inkscape:isstock="true"
       inkscape:collect="always"
       preserveAspectRatio="xMidYMid">
      <path
         transform="scale(0.5)"
         style="fill:context-stroke;fill-rule:evenodd;stroke:context-stroke;stroke-width:1pt"
         d="m 6,0 c -3,1 -7,3 -9,5 0,0 0,-4 2,-5 -2,-1 -2,-5 -2,-5 2,2 6,4 9,5 z"
         id="path9-6" />
    </marker>
    <marker
       style="overflow:visible"
       id="marker10-0"
       refX="0"
       refY="0"
       orient="auto-start-reverse"
       inkscape:stockid="Stylized triangle arrow"
       markerWidth="1"
       markerHeight="1"
       viewBox="0 0 1 1"
       inkscape:isstock="true"
       inkscape:collect="always"
       preserveAspectRatio="xMidYMid">
      <path
         transform="scale(0.5)"
         style="fill:context-stroke;fill-rule:evenodd;stroke:context-stroke;stroke-width:1pt"
         d="m 6,0 c -3,1 -7,3 -9,5 0,0 0,-4 2,-5 -2,-1 -2,-5 -2,-5 2,2 6,4 9,5 z"
         id="path10-7" />
    </marker>
    <rect
       x="151.18111"
       y="207.87401"
       width="256.66351"
       height="132.28346"
       id="rect15-4-4" />
    <marker
       style="overflow:visible"
       id="marker11-6-5"
       refX="0"
       refY="0"
       orient="auto-start-reverse"
       inkscape:stockid="Stylized triangle arrow"
       markerWidth="1"
       markerHeight="1"
       viewBox="0 0 1 1"
       inkscape:isstock="true"
       inkscape:collect="always"
       preserveAspectRatio="xMidYMid">
      <path
         transform="scale(0.5)"
         style="fill:context-stroke;fill-rule:evenodd;stroke:context-stroke;stroke-width:1pt"
         d="m 6,0 c -3,1 -7,3 -9,5 0,0 0,-4 2,-5 -2,-1 -2,-5 -2,-5 2,2 6,4 9,5 z"
         id="path11-7-6" />
    </marker>
    <marker
       style="overflow:visible"
       id="marker12-4-9"
       refX="0"
       refY="0"
       orient="auto-start-reverse"
       inkscape:stockid="Stylized triangle arrow"
       markerWidth="1"
       markerHeight="1"
       viewBox="0 0 1 1"
       inkscape:isstock="true"
       inkscape:collect="always"
       preserveAspectRatio="xMidYMid">
      <path
         transform="scale(0.5)"
         style="fill:context-stroke;fill-rule:evenodd;stroke:context-stroke;stroke-width:1pt"
         d="m 6,0 c -3,1 -7,3 -9,5 0,0 0,-4 2,-5 -2,-1 -2,-5 -2,-5 2,2 6,4 9,5 z"
         id="path12-6-7" />
    </marker>
    <marker
       style="overflow:visible"
       id="ArrowTriangleStylized-0"
       refX="0"
       refY="0"
       orient="auto-start-reverse"
       inkscape:stockid="Stylized triangle arrow"
       markerWidth="1"
       markerHeight="1"
       viewBox="0 0 1 1"
       inkscape:isstock="true"
       inkscape:collect="always"
       preserveAspectRatio="xMidYMid">
      <path
         transform="scale(0.5)"
         style="fill:context-stroke;fill-rule:evenodd;stroke:context-stroke;stroke-width:1pt"
         d="m 6,0 c -3,1 -7,3 -9,5 0,0 0,-4 2,-5 -2,-1 -2,-5 -2,-5 2,2 6,4 9,5 z"
         id="path7-9" />
    </marker>
    <marker
       style="overflow:visible"
       id="marker8-3"
       refX="0"
       refY="0"
       orient="auto-start-reverse"
       inkscape:stockid="Stylized triangle arrow"
       markerWidth="1"
       markerHeight="1"
       viewBox="0 0 1 1"
       inkscape:isstock="true"
       inkscape:collect="always"
       preserveAspectRatio="xMidYMid">
      <path
         transform="scale(0.5)"
         style="fill:context-stroke;fill-rule:evenodd;stroke:context-stroke;stroke-width:1pt"
         d="m 6,0 c -3,1 -7,3 -9,5 0,0 0,-4 2,-5 -2,-1 -2,-5 -2,-5 2,2 6,4 9,5 z"
         id="path8-5" />
    </marker>
    <marker
       style="overflow:visible"
       id="marker11-6-5-9"
       refX="0"
       refY="0"
       orient="auto-start-reverse"
       inkscape:stockid="Stylized triangle arrow"
       markerWidth="1"
       markerHeight="1"
       viewBox="0 0 1 1"
       inkscape:isstock="true"
       inkscape:collect="always"
       preserveAspectRatio="xMidYMid">
      <path
         transform="scale(0.5)"
         style="fill:context-stroke;fill-rule:evenodd;stroke:context-stroke;stroke-width:1pt"
         d="m 6,0 c -3,1 -7,3 -9,5 0,0 0,-4 2,-5 -2,-1 -2,-5 -2,-5 2,2 6,4 9,5 z"
         id="path11-7-6-3" />
    </marker>
    <marker
       style="overflow:visible"
       id="marker12-4-9-9"
       refX="0"
       refY="0"
       orient="auto-start-reverse"
       inkscape:stockid="Stylized triangle arrow"
       markerWidth="1"
       markerHeight="1"
       viewBox="0 0 1 1"
       inkscape:isstock="true"
       inkscape:collect="always"
       preserveAspectRatio="xMidYMid">
      <path
         transform="scale(0.5)"
         style="fill:context-stroke;fill-rule:evenodd;stroke:context-stroke;stroke-width:1pt"
         d="m 6,0 c -3,1 -7,3 -9,5 0,0 0,-4 2,-5 -2,-1 -2,-5 -2,-5 2,2 6,4 9,5 z"
         id="path12-6-7-9" />
    </marker>
    <marker
       style="overflow:visible"
       id="ArrowTriangleStylized-0-9"
       refX="0"
       refY="0"
       orient="auto-start-reverse"
       inkscape:stockid="Stylized triangle arrow"
       markerWidth="1"
       markerHeight="1"
       viewBox="0 0 1 1"
       inkscape:isstock="true"
       inkscape:collect="always"
       preserveAspectRatio="xMidYMid">
      <path
         transform="scale(0.5)"
         style="fill:context-stroke;fill-rule:evenodd;stroke:context-stroke;stroke-width:1pt"
         d="m 6,0 c -3,1 -7,3 -9,5 0,0 0,-4 2,-5 -2,-1 -2,-5 -2,-5 2,2 6,4 9,5 z"
         id="path7-9-6" />
    </marker>
    <marker
       style="overflow:visible"
       id="marker8-3-4"
       refX="0"
       refY="0"
       orient="auto-start-reverse"
       inkscape:stockid="Stylized triangle arrow"
       markerWidth="1"
       markerHeight="1"
       viewBox="0 0 1 1"
       inkscape:isstock="true"
       inkscape:collect="always"
       preserveAspectRatio="xMidYMid">
      <path
         transform="scale(0.5)"
         style="fill:context-stroke;fill-rule:evenodd;stroke:context-stroke;stroke-width:1pt"
         d="m 6,0 c -3,1 -7,3 -9,5 0,0 0,-4 2,-5 -2,-1 -2,-5 -2,-5 2,2 6,4 9,5 z"
         id="path8-5-9" />
    </marker>
    <marker
       style="overflow:visible"
       id="marker9-6"
       refX="0"
       refY="0"
       orient="auto-start-reverse"
       inkscape:stockid="Stylized triangle arrow"
       markerWidth="1"
       markerHeight="1"
       viewBox="0 0 1 1"
       inkscape:isstock="true"
       inkscape:collect="always"
       preserveAspectRatio="xMidYMid">
      <path
         transform="scale(0.5)"
         style="fill:context-stroke;fill-rule:evenodd;stroke:context-stroke;stroke-width:1pt"
         d="m 6,0 c -3,1 -7,3 -9,5 0,0 0,-4 2,-5 -2,-1 -2,-5 -2,-5 2,2 6,4 9,5 z"
         id="path9-9" />
    </marker>
    <marker
       style="overflow:visible"
       id="marker10-5"
       refX="0"
       refY="0"
       orient="auto-start-reverse"
       inkscape:stockid="Stylized triangle arrow"
       markerWidth="1"
       markerHeight="1"
       viewBox="0 0 1 1"
       inkscape:isstock="true"
       inkscape:collect="always"
       preserveAspectRatio="xMidYMid">
      <path
         transform="scale(0.5)"
         style="fill:context-stroke;fill-rule:evenodd;stroke:context-stroke;stroke-width:1pt"
         d="m 6,0 c -3,1 -7,3 -9,5 0,0 0,-4 2,-5 -2,-1 -2,-5 -2,-5 2,2 6,4 9,5 z"
         id="path10-5" />
    </marker>
    <rect
       x="138.89445"
       y="215.28641"
       width="201.26305"
       height="124.87107"
       id="rect14-7" />
    <rect
       x="151.18111"
       y="207.87401"
       width="256.66351"
       height="132.28346"
       id="rect15-4-4-1" />
    <rect
       x="151.18111"
       y="207.87401"
       width="256.66351"
       height="132.28346"
       id="rect15-4-4-1-2" />
    <marker
       style="overflow:visible"
       id="marker9-6-0"
       refX="0"
       refY="0"
       orient="auto-start-reverse"
       inkscape:stockid="Stylized triangle arrow"
       markerWidth="1"
       markerHeight="1"
       viewBox="0 0 1 1"
       inkscape:isstock="true"
       inkscape:collect="always"
       preserveAspectRatio="xMidYMid">
      <path
         transform="scale(0.5)"
         style="fill:context-stroke;fill-rule:evenodd;stroke:context-stroke;stroke-width:1pt"
         d="m 6,0 c -3,1 -7,3 -9,5 0,0 0,-4 2,-5 -2,-1 -2,-5 -2,-5 2,2 6,4 9,5 z"
         id="path9-9-9" />
    </marker>
    <marker
       style="overflow:visible"
       id="marker10-5-6"
       refX="0"
       refY="0"
       orient="auto-start-reverse"
       inkscape:stockid="Stylized triangle arrow"
       markerWidth="1"
       markerHeight="1"
       viewBox="0 0 1 1"
       inkscape:isstock="true"
       inkscape:collect="always"
       preserveAspectRatio="xMidYMid">
      <path
         transform="scale(0.5)"
         style="fill:context-stroke;fill-rule:evenodd;stroke:context-stroke;stroke-width:1pt"
         d="m 6,0 c -3,1 -7,3 -9,5 0,0 0,-4 2,-5 -2,-1 -2,-5 -2,-5 2,2 6,4 9,5 z"
         id="path10-5-4" />
    </marker>
    <rect
       x="138.89445"
       y="215.28641"
       width="201.26305"
       height="124.87107"
       id="rect14-7-8" />
  </defs>
  <g
     inkscape:label="Layer 1"
     inkscape:groupmode="layer"
     id="layer1"
     transform="translate(-1.15548,-59.882251)">
    <path
       style="fill:none;stroke:#000000;stroke-width:0.620477;stroke-dasharray:none;marker-start:url(#marker11);marker-end:url(#marker12)"
       d="M 15.047797,62.518815 V 157.48121"
       id="path4" />
    <path
       style="fill:none;stroke:#000000;stroke-width:0.389311;stroke-dasharray:none;marker-start:url(#marker9);marker-end:url(#marker10)"
       d="m 21.094017,165.27253 h 3.1785"
       id="path5" />
    <text
       xml:space="preserve"
       transform="matrix(0.26458333,0,0,0.26458333,-19.025164,109.42144)"
       id="text13"
       style="font-size:16px;white-space:pre;shape-inside:url(#rect14);display:inline;fill:#00000a;fill-opacity:1;stroke:#000000;stroke-width:0.623622;stroke-dasharray:none"><tspan
         x="138.89453"
         y="229.48904"
         id="tspan13"><tspan
           style="font-family:'Times New Roman';-inkscape-font-specification:'Times New Roman, '"
           id="tspan12">3 mm</tspan></tspan></text>
    <text
       xml:space="preserve"
       transform="matrix(0.26458333,0,0,0.26458333,-38.944063,52.719495)"
       id="text14"
       style="font-style:normal;font-variant:normal;font-weight:normal;font-stretch:normal;font-size:16px;font-family:'Times New Roman';-inkscape-font-specification:'Times New Roman, ';white-space:pre;shape-inside:url(#rect15);display:inline;fill:#000000;fill-opacity:1;stroke:#000000;stroke-width:0.623622;stroke-dasharray:none"><tspan
         x="151.18164"
         y="222.07498"
         id="tspan14">60 mm</tspan></text>
    <path
       d="m 25.342847,60.394625 h -4.94823 V 110 159.60539 h 4.69701 A 82.674981,82.674981 0 0 0 41.890507,110 82.674981,82.674981 0 0 0 25.342847,60.394625 Z"
       style="fill:#92cddc;fill-opacity:1;stroke:#000000;stroke-width:0.789236;stroke-dasharray:none"
       id="path17" />
    <path
       style="fill:none;stroke:#000000;stroke-width:0.483215;stroke-dasharray:none;marker-start:url(#ArrowTriangleStylized);marker-end:url(#marker8)"
       d="m 22.715767,110 h 16.85643"
       id="path6" />
    <text
       xml:space="preserve"
       transform="matrix(0.26458333,0,0,0.26458333,-6.9413236,-37.401729)"
       id="text17"
       style="font-style:normal;font-variant:normal;font-weight:normal;font-stretch:normal;font-size:16px;font-family:'Times New Roman';-inkscape-font-specification:'Times New Roman, ';white-space:pre;shape-inside:url(#rect18);display:inline;fill:#000000;fill-opacity:1;stroke:#000000;stroke-width:0.623622;stroke-dasharray:none"><tspan
         x="120.94531"
         y="547.116"
         id="tspan15">13 mm</tspan></text>
    <path
       d="M 93.53742,159.26583 A 82.696633,82.696633 0 0 1 76.99823,109.99957 82.696633,82.696633 0 0 1 93.53742,60.734205 v -0.35214 H 70.38205 v 49.617505 49.61837 h 23.15537 z"
       style="fill:#fbd4b4;fill-opacity:1;stroke:#000000;stroke-width:0.764117"
       id="path23" />
    <path
       style="fill:none;stroke:#000000;stroke-width:0.620477;stroke-dasharray:none;marker-start:url(#marker11-6);marker-end:url(#marker12-4)"
       d="M 65.047797,62.518815 V 157.48121"
       id="path4-2" />
    <text
       xml:space="preserve"
       transform="matrix(0.26458333,0,0,0.26458333,11.058647,52.706965)"
       id="text14-4"
       style="font-style:normal;font-variant:normal;font-weight:normal;font-stretch:normal;font-size:16px;font-family:'Times New Roman';-inkscape-font-specification:'Times New Roman, ';white-space:pre;shape-inside:url(#rect15-4);display:inline;fill:#000000;fill-opacity:1;stroke:#000000;stroke-width:0.623622;stroke-dasharray:none"><tspan
         x="151.18164"
         y="222.07498"
         id="tspan16">60 mm</tspan></text>
    <path
       style="fill:none;stroke:#000000;stroke-width:0.50895;stroke-dasharray:none;marker-start:url(#ArrowTriangleStylized-3);marker-end:url(#marker8-1)"
       d="M 72.68529,165.38501 H 91.38501"
       id="path6-3" />
    <text
       xml:space="preserve"
       transform="matrix(0.26458333,0,0,0.26458333,-39.028813,-51.455229)"
       id="text23"
       style="font-style:normal;font-variant:normal;font-weight:normal;font-stretch:normal;font-size:16px;font-family:'Times New Roman';-inkscape-font-specification:'Times New Roman, ';white-space:pre;shape-inside:url(#rect23);display:inline;fill:#000000;fill-opacity:1;stroke:#000000;stroke-width:0.623622;stroke-dasharray:none"><tspan
         x="434.64648"
         y="838.13943"
         id="tspan17">14 mm</tspan></text>
    <path
       style="fill:none;stroke:#000000;stroke-width:0.38275;stroke-dasharray:none;marker-start:url(#marker9-8);marker-end:url(#marker10-0)"
       d="m 72.18718,110 h 3.07228"
       id="path5-7" />
    <text
       xml:space="preserve"
       transform="matrix(0.26458333,0,0,0.26458333,-29.000123,-112.33332)"
       id="text24"
       style="font-style:normal;font-variant:normal;font-weight:normal;font-stretch:normal;font-size:16px;font-family:'Times New Roman';-inkscape-font-specification:'Times New Roman, ';white-space:pre;shape-inside:url(#rect24);display:inline;fill:#000000;fill-opacity:1;stroke:#000000;stroke-width:0.623622;stroke-dasharray:none"><tspan
         x="408.18945"
         y="845.69803"
         id="tspan18">4 mm</tspan></text>
    <path
       d="M 120.38269,60.382695 V 159.61733 A 49.617351,49.617351 0 0 0 169.99957,109.99957 49.617351,49.617351 0 0 0 120.38269,60.382695 Z"
       style="fill:#a8dc92;fill-opacity:1;stroke:#000000;stroke-width:0.765363;stroke-dasharray:none"
       id="path26" />
    <path
       style="fill:none;stroke:#000000;stroke-width:0.619656;stroke-dasharray:none;marker-start:url(#marker11-6-5);marker-end:url(#marker12-4-9)"
       d="M 115.04781,62.512155 V 157.22337"
       id="path4-2-0" />
    <path
       style="fill:none;stroke:#000000;stroke-width:0.619656;stroke-dasharray:none;marker-start:url(#marker11-6-5-9);marker-end:url(#marker12-4-9-9)"
       d="M 193.99999,62.644395 V 157.35561"
       id="path4-2-0-8" />
    <text
       xml:space="preserve"
       transform="matrix(0.26458333,0,0,0.26458333,61.058647,52.724515)"
       id="text14-4-0"
       style="font-style:normal;font-variant:normal;font-weight:normal;font-stretch:normal;font-size:16px;font-family:'Times New Roman';-inkscape-font-specification:'Times New Roman, ';white-space:pre;shape-inside:url(#rect15-4-4);display:inline;fill:#000000;fill-opacity:1;stroke:#000000;stroke-width:0.623622;stroke-dasharray:none"><tspan
         x="151.18164"
         y="222.07498"
         id="tspan19">60 mm</tspan></text>
    <path
       style="fill:none;stroke:#000000;stroke-width:0.631174;stroke-dasharray:none;marker-start:url(#ArrowTriangleStylized-0);marker-end:url(#marker8-3)"
       d="m 123.04341,110 h 44.37598"
       id="path6-5" />
    <text
       xml:space="preserve"
       transform="matrix(0.26458333,0,0,0.26458333,-7.0889436,-107.88973)"
       id="text26"
       style="font-style:normal;font-variant:normal;font-weight:normal;font-stretch:normal;font-size:16px;font-family:'Times New Roman';-inkscape-font-specification:'Times New Roman, ';white-space:pre;shape-inside:url(#rect26);display:inline;fill:#000000;fill-opacity:1;stroke:#000000;stroke-width:0.623622;stroke-dasharray:none"><tspan
         x="551.81055"
         y="811.6824"
         id="tspan20">30 mm</tspan></text>
    <path
       id="path21"
       style="fill:#c692dc;stroke:#000000;stroke-width:0.7;stroke-dasharray:none"
       d="m 248.95195,60.232251 a 49.900041,49.900041 0 0 0 -49.89959,49.900449 49.900041,49.900041 0 0 0 49.89959,49.89955 49.900041,49.900041 0 0 0 49.90043,-49.89955 49.900041,49.900041 0 0 0 -49.90043,-49.900449 z m 1.66323,5.033536 a 44.910031,44.910031 0 0 1 43.24664,44.866913 44.910031,44.910031 0 0 1 -43.24664,44.77921 z m -3.32647,0.08681 V 154.91191 A 44.910031,44.910031 0 0 1 204.04206,110.1327 44.910031,44.910031 0 0 1 247.28871,65.352602 Z" />
    <path
       style="fill:none;stroke:#000000;stroke-width:0.62;stroke-dasharray:none;marker-start:url(#ArrowTriangleStylized-0-9);marker-end:url(#marker8-3-4)"
       d="m 201.51266,165.21812 h 94.81502"
       id="path6-5-9" />
    <path
       style="fill:none;stroke:#000000;stroke-width:0.389311;stroke-dasharray:none;marker-start:url(#marker9-6);marker-end:url(#marker10-5)"
       d="m 200.49637,110.13225 h 2.08101"
       id="path5-3" />
    <text
       xml:space="preserve"
       transform="matrix(0.26458333,0,0,0.26458333,169.11394,50.838584)"
       id="text13-1"
       style="font-size:16px;white-space:pre;shape-inside:url(#rect14-7);display:inline;fill:#00000a;fill-opacity:1;stroke:#000000;stroke-width:0.623622;stroke-dasharray:none"><tspan
         x="138.89453"
         y="229.48904"
         id="tspan22"><tspan
           style="font-family:'Times New Roman';-inkscape-font-specification:'Times New Roman, '"
           id="tspan21">3 mm</tspan></tspan></text>
    <text
       xml:space="preserve"
       transform="matrix(0.26458333,0,0,0.26458333,140.01084,52.763141)"
       id="text14-4-0-9"
       style="font-style:normal;font-variant:normal;font-weight:normal;font-stretch:normal;font-size:16px;font-family:'Times New Roman';-inkscape-font-specification:'Times New Roman, ';white-space:pre;shape-inside:url(#rect15-4-4-1);display:inline;fill:#000000;fill-opacity:1;stroke:#000000;stroke-width:0.623622;stroke-dasharray:none"><tspan
         x="151.18164"
         y="222.07498"
         id="tspan23">60 mm</tspan></text>
    <text
       xml:space="preserve"
       transform="matrix(0.26458333,0,0,0.26458333,202.85264,111.31822)"
       id="text14-4-0-9-9"
       style="font-style:normal;font-variant:normal;font-weight:normal;font-stretch:normal;font-size:16px;font-family:'Times New Roman';-inkscape-font-specification:'Times New Roman, ';white-space:pre;shape-inside:url(#rect15-4-4-1-2);display:inline;fill:#000000;fill-opacity:1;stroke:#000000;stroke-width:0.623622;stroke-dasharray:none"><tspan
         x="151.18164"
         y="222.07498"
         id="tspan24">60 mm</tspan></text>
    <path
       style="fill:none;stroke:#000000;stroke-width:0.189;stroke-dasharray:none;marker-start:url(#marker9-6-0);marker-end:url(#marker10-5-6)"
       d="m 248.14836,110.13225 h 1.60763"
       id="path5-3-0" />
    <text
       xml:space="preserve"
       transform="matrix(0.26458333,0,0,0.26458333,215.73765,50.852747)"
       id="text13-1-3"
       style="font-size:16px;white-space:pre;shape-inside:url(#rect14-7-8);display:inline;fill:#00000a;fill-opacity:1;stroke:#000000;stroke-width:0.623622;stroke-dasharray:none"><tspan
         x="138.89453"
         y="229.48904"
         id="tspan26"><tspan
           style="font-family:'Times New Roman';-inkscape-font-specification:'Times New Roman, '"
           id="tspan25">2 mm</tspan></tspan></text>
  </g>
</svg>
